# xmcd
#
# Track frame offsets: 
#        150
#        1730
#        24832
#        46010
#        76590
#        92747
#        103645
#        117277
#        142232
#        174875
#        186900
#        196827
#        210425
#        225345
#        243955
#        256452
#
# Disc length: 3575 seconds
#
# Revision: 9
# Processed by: cddbd v1.5.2PL0 Copyright (c) Steve Scherf et al.
# Submitted via: ExactAudioCopy v0.95b2
#
DISCID=b70df510
DTITLE=Various Artist - Essential Blues Disc 2
DYEAR=1995
DGENRE=Blues
TTITLE0=House of Blues - Intro
TTITLE1=Albert Collins - Master Charge
TTITLE2=Koko Taylor - Mother Nature
TTITLE3=Little Milton - Walking the Backstreets and Crying
TTITLE4=Hound Dog Taylor - Give Me Back My Wig
TTITLE5=James Brown - Prisoner of Love
TTITLE6=B.B. King - You Upset Me Baby
TTITLE7=Latimore - Let's Straigten It Out
TTITLE8=Albert King - I'll Play the Blues For You
TTITLE9=Otis Spann - Must Have Been the Devil
TTITLE10=John Lee Hooker - Dimples
TTITLE11=Slim Harpo - Rainin' In My Heart
TTITLE12=Fenton Robinson - The Getaway
TTITLE13=Katie Webster - Too Much Sugar For a Dime
TTITLE14=Jimmy Reed - Bright Lights, Big City
TTITLE15=Junior Parker - Drivin' Wheel
EXTD=
EXTT0=
EXTT1=
EXTT2=
EXTT3=
EXTT4=
EXTT5=
EXTT6=
EXTT7=
EXTT8=
EXTT9=
EXTT10=
EXTT11=
EXTT12=
EXTT13=
EXTT14=
EXTT15=
PLAYORDER=
